<?xml version="1.0" encoding="utf-8"?>
<!-- Generator: Adobe Illustrator 18.1.1, SVG Export Plug-In . SVG Version: 6.00 Build 0)  -->
<!DOCTYPE svg PUBLIC "-//W3C//DTD SVG 1.1//EN" "http://www.w3.org/Graphics/SVG/1.1/DTD/svg11.dtd">
<svg version="1.1" id="Layer_1" xmlns="http://www.w3.org/2000/svg" xmlns:xlink="http://www.w3.org/1999/xlink" x="0px" y="0px"
	 viewBox="-345 257 100 100" enable-background="new -345 257 100 100" xml:space="preserve">
<g>
	<path fill="#FFFFFF" d="M-264.9,300.4v23.4c0,2.7-2.2,5-4.8,5h-4.9l2.2,9.8h-44.2l1.8-9.8h-5.3c-2.9,0-5-2.2-5-5v-23.4
		c0-2.7,2.1-5,5-5h6.2v-7.5h2.2v-8.2h33.8v8.2h2.2v7.5h6.2C-267.1,295.4-264.9,297.7-264.9,300.4z M-313.3,304.2
		c0-1.8-1.6-3.4-3.5-3.4c-1.8,0-3.4,1.6-3.4,3.4c0,1.9,1.6,3.4,3.4,3.4C-314.9,307.6-313.3,306.1-313.3,304.2z M-276.5,335.6
		l-3-15.4h-31l-2.3,15.4H-276.5z M-309.6,301.4h29.3v-18.6h-29.3V301.4z M-296.6,326.2h-8.9v2.2h8.9V326.2z M-284,326.2h-8.9v2.2
		h8.9V326.2z"/>
</g>
</svg>
